<?xml version="1.0" encoding="UTF-8"?>
<svg width="671px" height="220px" viewBox="0 0 671 220" version="1.1" xmlns="http://www.w3.org/2000/svg" xmlns:xlink="http://www.w3.org/1999/xlink">
    <!-- Generator: Sketch 51.2 (57519) - http://www.bohemiancoding.com/sketch -->
    <title>Slice 1</title>
    <desc>Created with Sketch.</desc>
    <defs></defs>
    <g id="Page-1" stroke="none" stroke-width="1" fill="none" fill-rule="evenodd">
        <g id="clock" transform="translate(286.000000, 0.000000)" fill="#F06D35" fill-rule="nonzero">
            <path d="M64.33125,73.16875 L43.75,52.5875 L43.75,25 L56.25,25 L56.25,47.4125 L73.16875,64.33125 L64.33125,73.16875 Z M50,0 C22.384375,0 0,22.384375 0,50 C0,77.615625 22.384375,100 50,100 C77.615625,100 100,77.615625 100,50 C100,22.384375 77.615625,0 50,0 Z M50,87.5 C29.290625,87.5 12.5,70.709375 12.5,50 C12.5,29.290625 29.290625,12.5 50,12.5 C70.709375,12.5 87.5,29.290625 87.5,50 C87.5,70.709375 70.709375,87.5 50,87.5 Z" id="Shape"></path>
        </g>
        <g id="mic" transform="translate(5.000000, 125.000000)" fill="#F06D35">
            <circle id="Oval" stroke="#F06D35" stroke-width="10" fill-opacity="0" cx="45" cy="45" r="45"></circle>
            <path d="M45,54.75 C50.8287778,54.75 55.5555556,51.111625 55.5555556,46.625 L55.5555556,27.125 C55.5555556,22.638375 50.8287778,19 45,19 C39.1712222,19 34.4444444,22.638375 34.4444444,27.125 L34.4444444,46.625 C34.4444444,51.111625 39.1712222,54.75 45,54.75 Z M59.7777778,41.75 L59.7777778,46.625 C59.7777778,52.90725 53.1615556,58 45,58 C36.8384444,58 30.2222222,52.90725 30.2222222,46.625 L30.2222222,41.75 L26,41.75 L26,46.625 C26,54.152 33.3888889,60.351375 42.8888889,61.159 L42.8888889,67.75 L34.4444444,67.75 L34.4444444,71 L55.5555556,71 L55.5555556,67.75 L47.1111111,67.75 L47.1111111,61.159 C56.6111111,60.351375 64,54.152 64,46.625 L64,41.75 L59.7777778,41.75 Z" id="Shape" fill-rule="nonzero"></path>
        </g>
        <g id="volume-low" transform="translate(576.000000, 125.000000)" fill="#F06D35">
            <circle id="Oval" stroke="#F06D35" stroke-width="10" fill-opacity="0" cx="45" cy="45" r="45"></circle>
            <g id="Group" transform="translate(25.000000, 21.000000)" fill-rule="nonzero">
                <path d="M33.497,36.2691429 C32.7472857,36.2691429 31.9975714,36.0188571 31.4255238,35.5165714 C30.2814286,34.512 30.2814286,32.8851429 31.4255238,31.8805714 C36.3728571,27.5365714 36.3728571,20.4668571 31.4255238,16.1228571 C30.2814286,15.1182857 30.2814286,13.4897143 31.4255238,12.4868571 C32.569619,11.484 34.4224286,11.4822857 35.5665238,12.4868571 C42.7981429,18.8365714 42.7981429,29.1685714 35.5665238,35.5182857 C34.9944762,36.0205714 34.2447619,36.2708571 33.4950476,36.2708571 L33.497,36.2691429 Z" id="Shape"></path>
                <path d="M25.3809524,48 C24.8733333,48 24.3735238,47.8251429 24.000619,47.4977143 L8.95361905,34.2857143 L1.95238095,34.2857143 C0.874666667,34.2857143 0,33.5177143 0,32.5714286 L0,15.4285714 C0,14.4822857 0.874666667,13.7142857 1.95238095,13.7142857 L8.95361905,13.7142857 L24.000619,0.502285714 C24.559,0.012 25.3985238,-0.135428571 26.1287143,0.130285714 C26.8589048,0.396 27.3333333,1.02 27.3333333,1.71428571 L27.3333333,46.2857143 C27.3333333,46.9782857 26.8569524,47.604 26.1287143,47.8697143 C25.886619,47.9571429 25.6328095,48 25.3809524,48 Z" id="Shape"></path>
            </g>
        </g>
        <path id="Line" d="M285.919119,48.2273474 L275.921107,49.3630242 L280.828853,56.9071629 L285.919119,48.2273474 Z M99.7726526,169.919119 L279.103978,53.2573428 L279.523097,52.9846902 L278.977791,52.1464526 L278.558673,52.4191052 L99.2273474,169.080881 L98.8082286,169.353534 L99.3535337,170.191771 L99.7726526,169.919119 Z" fill="#F06D35" fill-rule="nonzero"></path>
        <path id="Line" d="M571.92834,161.757925 L566.539552,153.260221 L561.896904,160.970333 L571.92834,161.757925 Z M385.242075,49.9283395 L564.404049,157.810818 L564.832389,158.068743 L565.348238,157.212064 L564.919899,156.954139 L385.757925,49.0716605 L385.329585,48.8137356 L384.813736,49.6704147 L385.242075,49.9283395 Z" fill="#F06D35" fill-rule="nonzero"></path>
        <path id="Line" d="M571,170.201389 L562,165.701389 L562,174.701389 L571,170.201389 Z M100.5,170.701389 L562.5,170.701389 L563,170.701389 L563,169.701389 L562.5,169.701389 L100.5,169.701389 L100,169.701389 L100,170.701389 L100.5,170.701389 Z" fill="#F06D35" fill-rule="nonzero"></path>
    </g>
</svg>