<svg id="svg2" height="205" width="200" xmlns="http://www.w3.org/2000/svg"><path fill="none" stroke="tomato" d="M76 0 L76 0 L76 1 L75 1 L75 2 L76 3 L76 4 L76 5 L76 6 L75 7 L74 7 L74 6 L73 6 L72 6 L71 6 L70 6 L69 7 L68 8 L68 9 L69 9 L68 10 L67 10 L66 11 L65 11 L65 12 L66 12 L65 13 L64 13 L64 14 L64 15 L64 16 L63 17 L62 16 L61 16 L61 17 L62 18 L61 19 L60 20 L59 20 L59 21 L59 22 L58 21 L57 21 L56 21 L56 20 L57 20 L57 22 L58 23 L58 24 L57 25 L56 26 L56 27 L56 28 L56 29 L55 30 L54 31 L54 32 L54 33 L53 34 L53 35 L54 35 L54 36 L53 36 L53 37 L53 38 L53 39 L53 40 L53 41 L53 42 L54 42 L54 43 L54 44 L54 45 L54 46 L55 46 L56 46 L55 47 L55 48 L56 48 L56 49 L56 50 L56 51 L56 52 L57 52 L57 53 L57 54 L58 54 L58 55 L57 55 L57 56 L58 57 L58 58 L59 58 L58 59 L57 60 L57 61 L58 61 L58 62 L57 63 L57 64 L58 64 L59 64 L58 65 L58 66 L58 67 L58 68 L58 69 L57 69 L57 70 L57 71 L57 72 L58 72 L58 73 L57 74 L57 75 L58 75 L58 76 L59 76 L59 77 L60 77 L59 78 L58 79 L58 80 L59 80 L60 80 L61 80 L61 81 L61 82 L61 83 L61 84 L62 84 L63 84 L64 84 L64 85 L64 86 L64 87 L64 88 L65 88 L65 87 L65 86 L66 86 L66 88 L66 89 L66 90 L65 90 L65 91 L67 91 L67 92 L67 93 L68 93 L68 94 L68 95 L69 95 L69 96 L69 97 L69 98 L69 99 L70 99 L69 100 L68 100 L68 99 L68 101 L69 101 L69 102 L69 103 L69 104 L68 105 L68 106 L68 107 L68 108 L67 109 L67 110 L66 110 L66 111 L65 111 L65 112 L65 113 L65 114 L64 114 L64 113 L64 112 L64 111 L66 112 L66 109 L65 108 L65 107 L65 106 L66 106 L66 107 L64 115 L64 116 L63 117 L63 118 L64 118 L64 119 L64 120 L65 120 L66 120 L67 120 L68 120 L69 120 L70 120 L71 120 L72 120 L73 119 L74 119 L74 120 L75 120 L75 121 L76 121 L76 122 L75 123 L74 124 L74 125 L73 126 L72 126 L72 127 L71 128 L70 128 L69 129 L68 128 L67 128 L67 129 L68 130 L67 131 L66 131 L65 132 L64 132 L63 133 L62 134 L61 135 L60 135 L59 136 L58 136 L57 137 L56 137 L55 137 L55 138 L56 138 L54 139 L53 139 L52 140 L51 140 L50 141 L49 141 L48 141 L47 141 L46 142 L45 143 L44 143 L43 143 L42 143 L41 144 L40 144 L39 144 L38 144 L37 145 L36 146 L35 146 L34 147 L33 147 L32 147 L31 148 L30 148 L29 149 L28 149 L27 149 L26 149 L26 150 L26 151 L27 151 L28 150 L26 152 L25 151 L25 150 L25 153 L24 154 L23 155 L22 155 L22 154 L22 153 L23 153 L21 155 L21 156 L21 157 L21 158 L20 159 L20 160 L19 161 L19 162 L18 163 L18 164 L18 165 L18 166 L17 167 L17 168 L17 169 L16 170 L16 171 L16 172 L15 173 L15 174 L14 175 L14 176 L13 176 L12 176 L12 177 L13 178 L13 179 L13 180 L13 181 L12 182 L12 183 L12 184 L12 185 L12 186 L12 187 L12 188 L12 189 L11 190 L11 191 L11 192 L11 193 L11 194 L12 194 L12 195 L12 196 L12 197 L12 198 L12 199 L11 199 L10 199 L10 200 L12 200 L12 201 L12 202 L12 203 L13 203 L13 204 L14 204 L15 204 L16 204 L17 204 L18 203 L19 202 L20 202 L20 203 L21 203 L22 203 L23 203 L24 202 L24 201 L24 200 L25 199 L25 198 L25 197 L25 196 L24 196 L24 195 L24 194 L24 193 L24 192 L23 192 L22 192 L21 192 L20 192 L20 191 L20 190 L20 189 L20 188 L20 187 L21 186 L22 186 L23 186 L23 187 L22 187 L22 188 L23 188 L22 189 L26 189 L27 189 L28 188 L29 187 L30 186 L31 186 L32 186 L33 185 L33 184 L33 183 L34 182 L34 181 L34 180 L34 179 L33 179 L32 179 L32 178 L31 178 L31 179 L30 179 L29 179 L29 178 L30 178 L32 180 L31 181 L30 181 L29 182 L28 182 L27 182 L27 181 L26 181 L25 181 L24 181 L24 182 L24 183 L24 184 L25 184 L26 184 L26 183 L25 183 L27 183 L28 183 L28 184 L27 184 L29 183 L31 184 L32 184 L31 185 L26 190 L26 191 L26 192 L27 192 L27 193 L27 194 L27 195 L27 196 L27 197 L27 198 L27 199 L26 200 L26 201 L27 201 L26 202 L26 203 L27 203 L28 203 L28 204 L29 204 L30 204 L31 204 L32 204 L33 204 L34 204 L35 204 L36 204 L43 204 L44 204 L45 204 L46 204 L47 204 L48 204 L47 203 L47 202 L48 202 L47 201 L47 200 L47 199 L47 198 L46 198 L46 197 L47 197 L48 197 L45 197 L45 196 L44 196 L44 195 L44 194 L44 193 L44 192 L45 191 L45 190 L45 189 L45 188 L45 187 L46 186 L47 186 L48 185 L48 184 L47 184 L46 184 L45 184 L45 183 L46 182 L46 181 L46 180 L47 179 L48 178 L49 178 L50 178 L51 178 L52 177 L53 177 L54 177 L55 177 L55 176 L55 175 L56 175 L57 175 L58 175 L59 175 L60 175 L61 175 L61 176 L62 176 L63 176 L64 175 L64 174 L64 173 L64 172 L63 172 L63 173 L63 171 L64 171 L65 172 L66 172 L67 172 L68 172 L69 172 L70 172 L71 172 L72 172 L72 173 L72 174 L73 174 L74 174 L75 174 L76 174 L76 175 L76 176 L77 176 L78 176 L79 175 L79 174 L80 174 L80 175 L81 175 L82 175 L83 175 L84 175 L85 175 L86 175 L87 175 L88 175 L89 174 L90 174 L91 174 L92 173 L93 173 L94 173 L95 173 L96 172 L97 172 L98 172 L99 172 L100 172 L101 172 L102 172 L103 172 L104 172 L105 172 L106 171 L107 171 L108 171 L109 171 L110 171 L111 171 L112 171 L113 171 L114 171 L115 171 L116 171 L117 171 L118 171 L119 171 L120 170 L121 170 L122 169 L123 169 L124 169 L125 169 L126 168 L127 168 L128 168 L129 168 L130 168 L131 167 L131 166 L132 166 L133 166 L134 165 L135 165 L136 165 L136 166 L137 166 L138 166 L139 165 L140 165 L141 165 L142 165 L143 165 L144 165 L145 165 L146 165 L147 164 L148 164 L149 164 L149 165 L150 165 L151 165 L152 165 L152 166 L153 166 L154 166 L155 166 L155 167 L156 167 L157 167 L158 167 L159 167 L160 167 L160 168 L160 169 L160 170 L161 170 L162 170 L163 170 L164 170 L165 170 L164 171 L163 171 L162 171 L161 172 L161 173 L162 173 L163 173 L164 173 L165 173 L166 173 L167 173 L168 173 L168 174 L168 175 L168 176 L169 176 L170 176 L171 176 L172 176 L173 176 L174 176 L174 177 L175 177 L175 178 L175 179 L176 179 L177 179 L177 180 L177 181 L177 182 L177 183 L176 184 L176 185 L177 185 L177 186 L178 186 L178 187 L177 188 L176 189 L175 189 L175 188 L174 188 L173 188 L172 189 L171 189 L170 189 L170 188 L170 187 L169 187 L168 187 L168 186 L168 185 L168 184 L168 183 L167 183 L167 182 L166 182 L166 181 L166 180 L166 179 L166 178 L165 178 L164 178 L163 178 L162 178 L161 179 L160 179 L159 180 L158 180 L157 181 L156 182 L156 183 L155 184 L155 185 L155 186 L154 187 L154 188 L154 189 L154 190 L153 191 L152 192 L152 193 L152 194 L153 194 L152 195 L152 196 L152 197 L153 197 L153 198 L153 199 L153 200 L153 201 L153 202 L153 203 L153 204 L154 204 L155 204 L156 204 L163 204 L164 204 L165 204 L166 204 L167 204 L168 204 L169 204 L170 204 L171 204 L172 203 L172 202 L172 201 L173 201 L173 202 L174 202 L175 202 L175 203 L176 203 L176 202 L177 202 L177 203 L178 203 L179 203 L180 203 L181 203 L182 203 L183 203 L184 203 L184 204 L185 204 L186 204 L187 204 L188 203 L188 202 L188 201 L188 200 L188 199 L188 198 L188 197 L188 196 L188 195 L188 194 L188 193 L188 192 L188 191 L188 190 L188 189 L188 188 L188 187 L188 186 L188 185 L188 184 L188 183 L188 182 L188 181 L188 180 L188 179 L188 178 L187 178 L187 177 L187 176 L187 175 L187 174 L187 173 L186 173 L186 172 L186 171 L186 170 L185 170 L185 169 L185 168 L184 168 L184 167 L184 166 L184 165 L183 165 L183 164 L183 163 L183 162 L182 162 L182 161 L182 160 L181 160 L181 159 L181 158 L181 157 L181 156 L180 156 L180 155 L180 154 L180 153 L181 153 L179 154 L179 155 L178 154 L178 153 L178 152 L177 152 L177 151 L176 151 L176 150 L175 150 L175 149 L175 148 L174 148 L174 149 L173 148 L172 148 L172 147 L172 146 L171 146 L171 145 L170 145 L169 145 L169 146 L168 145 L168 144 L167 144 L166 144 L166 143 L165 143 L164 143 L164 142 L163 142 L162 142 L162 141 L162 140 L162 139 L163 139 L161 141 L160 141 L159 141 L159 140 L158 140 L157 140 L156 140 L155 140 L154 140 L153 140 L153 139 L152 139 L151 139 L150 139 L149 139 L148 139 L148 138 L147 138 L146 138 L146 137 L145 137 L145 136 L144 136 L143 136 L142 136 L142 135 L141 135 L140 135 L140 134 L139 134 L138 134 L138 133 L137 133 L137 132 L136 132 L135 132 L135 131 L134 131 L133 131 L133 130 L132 130 L132 129 L132 128 L133 128 L131 129 L130 129 L130 128 L129 128 L128 128 L128 127 L127 127 L127 126 L126 126 L126 125 L125 125 L125 124 L124 124 L124 123 L124 122 L125 122 L124 121 L125 120 L125 119 L126 118 L127 117 L128 117 L129 117 L130 117 L131 116 L131 115 L131 114 L131 113 L132 112 L132 111 L132 110 L132 109 L132 108 L131 108 L131 107 L132 106 L132 105 L132 104 L132 103 L132 102 L133 102 L133 103 L131 103 L131 104 L131 102 L131 101 L131 100 L132 100 L133 100 L134 100 L135 100 L134 101 L132 101 L132 99 L132 98 L132 97 L133 97 L131 97 L131 96 L130 96 L130 95 L130 94 L130 93 L130 92 L129 92 L129 91 L129 90 L129 89 L129 88 L129 87 L130 87 L131 87 L132 87 L132 86 L132 85 L132 84 L133 83 L133 82 L133 81 L133 80 L134 80 L134 79 L133 79 L135 78 L135 77 L135 76 L135 75 L136 75 L135 74 L135 73 L136 73 L135 72 L136 71 L136 70 L135 70 L135 69 L135 68 L134 68 L134 67 L133 67 L133 66 L134 66 L134 65 L134 64 L133 64 L133 65 L133 63 L133 62 L133 61 L133 60 L133 59 L132 59 L132 58 L132 57 L133 57 L134 57 L134 56 L135 56 L133 55 L132 55 L132 56 L132 54 L133 54 L134 54 L132 53 L132 52 L133 52 L133 51 L132 51 L132 50 L133 50 L134 50 L134 48 L133 48 L132 49 L135 47 L135 46 L135 45 L136 45 L135 44 L135 43 L135 42 L135 41 L134 41 L134 40 L135 39 L135 38 L136 37 L137 36 L138 35 L138 34 L137 34 L137 33 L136 33 L136 32 L136 31 L135 31 L135 30 L135 29 L134 29 L134 28 L134 27 L134 26 L133 26 L133 25 L134 25 L134 24 L135 24 L133 24 L132 23 L131 23 L130 23 L130 22 L130 21 L130 20 L131 20 L131 22 L129 22 L129 21 L128 21 L128 20 L128 19 L128 18 L127 18 L126 18 L126 17 L126 16 L127 16 L125 16 L125 15 L124 15 L123 15 L123 14 L122 13 L122 12 L121 12 L121 11 L120 11 L120 10 L119 10 L118 10 L118 9 L118 8 L119 8 L119 9 L120 8 L117 8 L116 8 L115 8 L115 7 L114 7 L113 7 L112 7 L111 7 L111 6 L112 5 L112 4 L111 4 L110 4 L109 4 L108 4 L107 4 L106 5 L105 5 L104 5 L104 4 L103 4 L102 4 L102 3 L101 3 L101 2 L100 2 L100 1 L99 1 L98 1 L98 0 L97 0 L96 1 L95 1 L94 2 L93 2 L92 2 L92 1 L91 1 L91 0 L90 0 L89 1 L88 1 L88 0 L87 0 L86 0 L86 1 L85 1 L84 1 L83 1 L83 2 L84 2 L85 2 L83 3 L82 3 L81 3 L81 2 L82 2 L82 1 L82 0 L81 1 L80 1 L80 2 L79 2 L78 2 L78 1 L78 0 L77 0 L77 2 L79 1 L80 0 L79 3 L80 4 L80 5 L81 4 "></path><path fill="#FFF" stroke="tomato" d="M81 4 L81 4 "></path><path fill="#FFF" stroke="tomato" d="M65 10 L65 10 L64 10 L64 11 "></path><path fill="#FFF" stroke="tomato" d="M64 11 L64 11 "></path><path fill="#FFF" stroke="tomato" d="M104 2 L104 2 L104 3 L105 2 "></path><path fill="#FFF" stroke="tomato" d="M105 2 L105 2 "></path><path fill="#FFF" stroke="tomato" d="M50 33 L50 33 L49 33 L49 34 L52 36 L52 37 L52 40 L51 40 L51 41 "></path><path fill="#FFF" stroke="tomato" d="M51 41 L51 41 "></path><path fill="#FFF" stroke="tomato" d="M123 12 L123 12 L124 12 L124 13 L126 19 L130 24 L131 24 L131 25 L132 25 L132 26 L132 27 L135 27 L134 31 L134 32 L136 39 L137 39 L136 40 "></path><path fill="#FFF" stroke="tomato" d="M59 55 L59 55 L59 56 "></path><path fill="#FFF" stroke="tomato" d="M59 56 L59 56 "></path><path fill="#FFF" stroke="tomato" d="M59 67 L59 67 L57 68 L56 72 L56 73 L56 75 L56 76 L56 77 L57 77 L56 78 L59 72 "></path><path fill="#FFF" stroke="tomato" d="M59 72 L59 72 "></path><path fill="#FFF" stroke="tomato" d="M135 64 L135 64 L135 65 L135 66 "></path><path fill="#FFF" stroke="tomato" d="M135 66 L135 66 "></path><path fill="#FFF" stroke="tomato" d="M67 89 L67 89 L67 90 L68 91 L64 89 "></path><path fill="#FFF" stroke="tomato" d="M64 89 L64 89 "></path><path fill="#FFF" stroke="tomato" d="M131 86 L131 86 L133 86 L131 88 "></path><path fill="#FFF" stroke="tomato" d="M131 88 L131 88 "></path><path fill="#FFF" stroke="tomato" d="M130 98 L130 98 L130 99 L131 99 L130 100 L130 101 L133 105 L133 108 L133 109 L131 109 L131 110 L133 114 L133 115 L134 114 L128 119 L127 119 L127 120 "></path><path fill="#FFF" stroke="tomato" d="M76 117 L76 117 L76 118 L77 118 L76 119 L75 119 L74 118 L75 117 L76 120 L77 120 "></path><path fill="#FFF" stroke="tomato" d="M77 120 L77 120 "></path><path fill="#FFF" stroke="tomato" d="M48 142 L48 142 "></path><path fill="#FFF" stroke="tomato" d="M48 142 L48 142 "></path><path fill="#FFF" stroke="tomato" d="M143 137 L143 137 "></path><path fill="#FFF" stroke="tomato" d="M143 137 L143 137 "></path><path fill="#FFF" stroke="tomato" d="M22 156 L22 156 L18 159 L17 159 L17 160 L19 164 "></path><path fill="#FFF" stroke="tomato" d="M19 164 L19 164 "></path><path fill="#FFF" stroke="tomato" d="M172 145 L172 145 L173 145 L171 147 L176 148 "></path><path fill="#FFF" stroke="tomato" d="M56 176 L56 176 L58 180 L59 180 L59 181 L59 182 L58 183 L57 183 L57 182 L56 182 L56 181 L57 181 "></path><path fill="#FFF" stroke="tomato" d="M147 167 L147 167 L147 168 L148 168 L148 167 L149 167 L149 168 L150 167 L157 168 L162 174 L157 176 L156 176 L156 177 L156 178 L157 177 "></path><path fill="#FFF" stroke="tomato" d="M14 177 L14 177 "></path><path fill="#FFF" stroke="tomato" d="M14 177 L14 177 "></path><path fill="#FFF" stroke="tomato" d="M182 158 L182 158 "></path><path fill="#FFF" stroke="tomato" d="M182 158 L182 158 "></path><path fill="#FFF" stroke="tomato" d="M128 184 L128 184 L128 185 L128 186 L129 186 L130 186 L131 186 L132 186 L133 186 L134 186 L135 186 L136 185 L136 184 L135 184 L134 184 L133 184 L132 184 L131 184 L130 184 L129 184 L134 188 L135 188 L136 188 L136 189 L135 189 L135 190 L134 189 L138 195 L139 195 L140 195 L141 195 L142 195 L143 195 L144 195 L144 196 L144 197 L144 198 L143 199 L143 200 L142 200 L141 200 L140 200 L139 200 L139 199 L138 199 L138 198 L138 197 L138 196 L143 201 L144 200 "></path><path fill="#FFF" stroke="tomato" d="M23 184 L23 184 L23 185 "></path><path fill="#FFF" stroke="tomato" d="M23 185 L23 185 "></path><path fill="#FFF" stroke="tomato" d="M144 183 L144 183 L145 183 L144 184 "></path><path fill="#FFF" stroke="tomato" d="M144 184 L144 184 "></path><path fill="#FFF" stroke="tomato" d="M167 176 L167 176 L167 177 L167 180 "></path><path fill="#FFF" stroke="tomato" d="M167 180 L167 180 "></path><path fill="#FFF" stroke="tomato" d="M45 200 L45 200 L44 200 L44 201 "></path><path fill="#FFF" stroke="tomato" d="M44 201 L44 201 "></path><path fill="#FFF" stroke="tomato" d="M176 192 L176 192 L176 193 L176 194 L177 193 L177 192 L178 192 L179 192 L179 193 L179 194 L180 194 L180 195 L180 196 L181 196 L181 197 L181 198 L180 199 L180 200 L180 201 L181 201 L180 202 L179 202 L178 202 L177 200 L177 199 "></path></svg>
