<?xml version="1.0" encoding="UTF-8"?>
<svg width="665px" height="100px" viewBox="0 0 665 100" version="1.1" xmlns="http://www.w3.org/2000/svg" xmlns:xlink="http://www.w3.org/1999/xlink">
    <!-- Generator: Sketch 51.2 (57519) - http://www.bohemiancoding.com/sketch -->
    <title>Slice 1</title>
    <desc>Created with Sketch.</desc>
    <defs></defs>
    <g id="Page-1" stroke="none" stroke-width="1" fill="none" fill-rule="evenodd">
        <g id="mic" transform="translate(5.000000, 5.000000)" fill="#F06D35">
            <circle id="Oval" stroke="#F06D35" stroke-width="10" fill-opacity="0" cx="45" cy="45" r="45"></circle>
            <path d="M45,54.75 C50.8287778,54.75 55.5555556,51.111625 55.5555556,46.625 L55.5555556,27.125 C55.5555556,22.638375 50.8287778,19 45,19 C39.1712222,19 34.4444444,22.638375 34.4444444,27.125 L34.4444444,46.625 C34.4444444,51.111625 39.1712222,54.75 45,54.75 Z M59.7777778,41.75 L59.7777778,46.625 C59.7777778,52.90725 53.1615556,58 45,58 C36.8384444,58 30.2222222,52.90725 30.2222222,46.625 L30.2222222,41.75 L26,41.75 L26,46.625 C26,54.152 33.3888889,60.351375 42.8888889,61.159 L42.8888889,67.75 L34.4444444,67.75 L34.4444444,71 L55.5555556,71 L55.5555556,67.75 L47.1111111,67.75 L47.1111111,61.159 C56.6111111,60.351375 64,54.152 64,46.625 L64,41.75 L59.7777778,41.75 Z" id="Shape" fill-rule="nonzero"></path>
        </g>
        <g id="volume-low" transform="translate(570.000000, 5.000000)" fill="#F06D35">
            <circle id="Oval" stroke="#F06D35" stroke-width="10" fill-opacity="0" cx="45" cy="45" r="45"></circle>
            <g id="Group" transform="translate(25.000000, 21.000000)" fill-rule="nonzero">
                <path d="M33.497,36.2691429 C32.7472857,36.2691429 31.9975714,36.0188571 31.4255238,35.5165714 C30.2814286,34.512 30.2814286,32.8851429 31.4255238,31.8805714 C36.3728571,27.5365714 36.3728571,20.4668571 31.4255238,16.1228571 C30.2814286,15.1182857 30.2814286,13.4897143 31.4255238,12.4868571 C32.569619,11.484 34.4224286,11.4822857 35.5665238,12.4868571 C42.7981429,18.8365714 42.7981429,29.1685714 35.5665238,35.5182857 C34.9944762,36.0205714 34.2447619,36.2708571 33.4950476,36.2708571 L33.497,36.2691429 Z" id="Shape"></path>
                <path d="M25.3809524,48 C24.8733333,48 24.3735238,47.8251429 24.000619,47.4977143 L8.95361905,34.2857143 L1.95238095,34.2857143 C0.874666667,34.2857143 0,33.5177143 0,32.5714286 L0,15.4285714 C0,14.4822857 0.874666667,13.7142857 1.95238095,13.7142857 L8.95361905,13.7142857 L24.000619,0.502285714 C24.559,0.012 25.3985238,-0.135428571 26.1287143,0.130285714 C26.8589048,0.396 27.3333333,1.02 27.3333333,1.71428571 L27.3333333,46.2857143 C27.3333333,46.9782857 26.8569524,47.604 26.1287143,47.8697143 C25.886619,47.9571429 25.6328095,48 25.3809524,48 Z" id="Shape"></path>
            </g>
        </g>
        <path id="Line" d="M280,50.25 L271,45.75 L271,54.75 L280,50.25 Z M95.5,50.75 L271.5,50.75 L272,50.75 L272,49.75 L271.5,49.75 L95.5,49.75 L95,49.75 L95,50.75 L95.5,50.75 Z" fill="#F06D35" fill-rule="nonzero"></path>
        <path id="Line" d="M565,50.2083333 L556,45.7083333 L556,54.7083333 L565,50.2083333 Z M380.5,50.7083333 L556.5,50.7083333 L557,50.7083333 L557,49.7083333 L556.5,49.7083333 L380.5,49.7083333 L380,49.7083333 L380,50.7083333 L380.5,50.7083333 Z" fill="#F06D35" fill-rule="nonzero"></path>
        <g id="volume-low" transform="translate(285.000000, 5.000000)" fill="#F06D35" fill-opacity="0" stroke="#F06D35" stroke-width="10">
            <circle id="Oval" cx="45" cy="45" r="45"></circle>
        </g>
        <text id="C" font-family="Helvetica" font-size="40" font-weight="normal" fill="#F06D35">
            <tspan x="316" y="65">C</tspan>
        </text>
    </g>
</svg>