<?xml version="1.0" encoding="UTF-8"?>
<svg width="671px" height="229px" viewBox="0 0 671 229" version="1.1" xmlns="http://www.w3.org/2000/svg" xmlns:xlink="http://www.w3.org/1999/xlink">
    <!-- Generator: Sketch 51.2 (57519) - http://www.bohemiancoding.com/sketch -->
    <title>Slice 1</title>
    <desc>Created with Sketch.</desc>
    <defs></defs>
    <g id="Page-1" stroke="none" stroke-width="1" fill="none" fill-rule="evenodd">
        <g id="clock" transform="translate(192.000000, 5.000000)" fill="#F06D35" fill-rule="nonzero">
            <path d="M64.33125,73.16875 L43.75,52.5875 L43.75,25 L56.25,25 L56.25,47.4125 L73.16875,64.33125 L64.33125,73.16875 Z M50,0 C22.384375,0 0,22.384375 0,50 C0,77.615625 22.384375,100 50,100 C77.615625,100 100,77.615625 100,50 C100,22.384375 77.615625,0 50,0 Z M50,87.5 C29.290625,87.5 12.5,70.709375 12.5,50 C12.5,29.290625 29.290625,12.5 50,12.5 C70.709375,12.5 87.5,29.290625 87.5,50 C87.5,70.709375 70.709375,87.5 50,87.5 Z" id="Shape"></path>
        </g>
        <g id="mic" transform="translate(5.000000, 134.000000)" fill="#F06D35">
            <circle id="Oval" stroke="#F06D35" stroke-width="10" fill-opacity="0" cx="45" cy="45" r="45"></circle>
            <path d="M45,54.75 C50.8287778,54.75 55.5555556,51.111625 55.5555556,46.625 L55.5555556,27.125 C55.5555556,22.638375 50.8287778,19 45,19 C39.1712222,19 34.4444444,22.638375 34.4444444,27.125 L34.4444444,46.625 C34.4444444,51.111625 39.1712222,54.75 45,54.75 Z M59.7777778,41.75 L59.7777778,46.625 C59.7777778,52.90725 53.1615556,58 45,58 C36.8384444,58 30.2222222,52.90725 30.2222222,46.625 L30.2222222,41.75 L26,41.75 L26,46.625 C26,54.152 33.3888889,60.351375 42.8888889,61.159 L42.8888889,67.75 L34.4444444,67.75 L34.4444444,71 L55.5555556,71 L55.5555556,67.75 L47.1111111,67.75 L47.1111111,61.159 C56.6111111,60.351375 64,54.152 64,46.625 L64,41.75 L59.7777778,41.75 Z" id="Shape" fill-rule="nonzero"></path>
        </g>
        <g id="volume-low" transform="translate(576.000000, 134.000000)" fill="#F06D35">
            <circle id="Oval" stroke="#F06D35" stroke-width="10" fill-opacity="0" cx="45" cy="45" r="45"></circle>
            <g id="Group" transform="translate(25.000000, 21.000000)" fill-rule="nonzero">
                <path d="M33.497,36.2691429 C32.7472857,36.2691429 31.9975714,36.0188571 31.4255238,35.5165714 C30.2814286,34.512 30.2814286,32.8851429 31.4255238,31.8805714 C36.3728571,27.5365714 36.3728571,20.4668571 31.4255238,16.1228571 C30.2814286,15.1182857 30.2814286,13.4897143 31.4255238,12.4868571 C32.569619,11.484 34.4224286,11.4822857 35.5665238,12.4868571 C42.7981429,18.8365714 42.7981429,29.1685714 35.5665238,35.5182857 C34.9944762,36.0205714 34.2447619,36.2708571 33.4950476,36.2708571 L33.497,36.2691429 Z" id="Shape"></path>
                <path d="M25.3809524,48 C24.8733333,48 24.3735238,47.8251429 24.000619,47.4977143 L8.95361905,34.2857143 L1.95238095,34.2857143 C0.874666667,34.2857143 0,33.5177143 0,32.5714286 L0,15.4285714 C0,14.4822857 0.874666667,13.7142857 1.95238095,13.7142857 L8.95361905,13.7142857 L24.000619,0.502285714 C24.559,0.012 25.3985238,-0.135428571 26.1287143,0.130285714 C26.8589048,0.396 27.3333333,1.02 27.3333333,1.71428571 L27.3333333,46.2857143 C27.3333333,46.9782857 26.8569524,47.604 26.1287143,47.8697143 C25.886619,47.9571429 25.6328095,48 25.3809524,48 Z" id="Shape"></path>
            </g>
        </g>
        <path id="Line" d="M571,179.201389 L562,174.701389 L562,183.701389 L571,179.201389 Z M100.5,179.701389 L562.5,179.701389 L563,179.701389 L563,178.701389 L562.5,178.701389 L100.5,178.701389 L100,178.701389 L100,179.701389 L100.5,179.701389 Z" fill="#F06D35" fill-rule="nonzero"></path>
        <g id="arrow-up-right2" transform="translate(389.000000, 5.000000)" fill="#F06D35">
            <circle id="Oval" stroke="#F06D35" stroke-width="10" fill-opacity="0" cx="45" cy="45" r="45"></circle>
            <path d="M27.1125,68.7791667 L61.6666667,34.225 L61.6666667,49.1666667 C61.6666667,51.46875 63.53125,53.3333333 65.8333333,53.3333333 C68.1354167,53.3333333 70,51.46875 70,49.1666667 L70,24.1666667 C70,22.48125 68.9854167,20.9625 67.4270833,20.3166667 C66.9104167,20.1020833 66.36875,20.0020833 65.8333333,20.0020833 L65.8333333,20 L40.8333333,20 C38.53125,20 36.6666667,21.8645833 36.6666667,24.1666667 C36.6666667,26.46875 38.53125,28.3333333 40.8333333,28.3333333 L55.775,28.3333333 L21.2208333,62.8875 C20.40625,63.7 20,64.7666667 20,65.8333333 C20,66.9 20.40625,67.9666667 21.2208333,68.7791667 C22.8479167,70.40625 25.4854167,70.40625 27.1125,68.7791667 Z" id="Shape" fill-rule="nonzero"></path>
        </g>
        <path id="Line" d="M191.795823,54.0969009 L182.843121,58.6902804 L190.098905,64.0150898 L191.795823,54.0969009 Z M100.903099,178.795823 L187.209353,61.1916961 L187.505176,60.788597 L186.698978,60.1969515 L186.403155,60.6000506 L100.096901,178.204177 L99.8010781,178.607276 L100.607276,179.198922 L100.903099,178.795823 Z" fill="#F06D35" fill-rule="nonzero"></path>
        <path id="Line" d="M387,68.2083333 L378,63.7083333 L378,72.7083333 L387,68.2083333 Z M287.5,68.7083333 L378.5,68.7083333 L379,68.7083333 L379,67.7083333 L378.5,67.7083333 L287.5,67.7083333 L287,67.7083333 L287,68.7083333 L287.5,68.7083333 Z" fill="#F06D35" fill-rule="nonzero"></path>
        <path id="Line" d="M290,39.25 L299,43.75 L299,34.75 L290,39.25 Z M385.5,38.75 L298.5,38.75 L298,38.75 L298,39.75 L298.5,39.75 L385.5,39.75 L386,39.75 L386,38.75 L385.5,38.75 Z" fill="#F06D35" fill-rule="nonzero"></path>
        <path id="Line" d="M570.784949,174.910857 L569.353575,164.950879 L561.958142,170.07997 L570.784949,174.910857 Z M484.089143,50.7849495 L565.563718,168.259919 L565.848668,168.670776 L566.670382,168.100877 L566.385433,167.69002 L484.910857,50.2150505 L484.625908,49.8041931 L483.804193,50.3740921 L484.089143,50.7849495 Z" fill="#F06D35" fill-rule="nonzero"></path>
    </g>
</svg>