<?xml version="1.0" encoding="UTF-8"?>
<svg width="830px" height="261px" viewBox="0 0 830 261" version="1.1" xmlns="http://www.w3.org/2000/svg" xmlns:xlink="http://www.w3.org/1999/xlink">
    <!-- Generator: Sketch 51.2 (57519) - http://www.bohemiancoding.com/sketch -->
    <title>flanger</title>
    <desc>Created with Sketch.</desc>
    <defs></defs>
    <g id="Page-1" stroke="none" stroke-width="1" fill="none" fill-rule="evenodd">
        <g id="clock" transform="translate(365.000000, 0.000000)" fill="#F06D35" fill-rule="nonzero">
            <path d="M64.33125,73.16875 L43.75,52.5875 L43.75,25 L56.25,25 L56.25,47.4125 L73.16875,64.33125 L64.33125,73.16875 Z M50,0 C22.384375,0 0,22.384375 0,50 C0,77.615625 22.384375,100 50,100 C77.615625,100 100,77.615625 100,50 C100,22.384375 77.615625,0 50,0 Z M50,87.5 C29.290625,87.5 12.5,70.709375 12.5,50 C12.5,29.290625 29.290625,12.5 50,12.5 C70.709375,12.5 87.5,29.290625 87.5,50 C87.5,70.709375 70.709375,87.5 50,87.5 Z" id="Shape"></path>
        </g>
        <g id="mic" transform="translate(5.000000, 8.000000)" fill="#F06D35">
            <circle id="Oval" stroke="#F06D35" stroke-width="10" fill-opacity="0" cx="45" cy="45" r="45"></circle>
            <path d="M45,54.75 C50.8287778,54.75 55.5555556,51.111625 55.5555556,46.625 L55.5555556,27.125 C55.5555556,22.638375 50.8287778,19 45,19 C39.1712222,19 34.4444444,22.638375 34.4444444,27.125 L34.4444444,46.625 C34.4444444,51.111625 39.1712222,54.75 45,54.75 Z M59.7777778,41.75 L59.7777778,46.625 C59.7777778,52.90725 53.1615556,58 45,58 C36.8384444,58 30.2222222,52.90725 30.2222222,46.625 L30.2222222,41.75 L26,41.75 L26,46.625 C26,54.152 33.3888889,60.351375 42.8888889,61.159 L42.8888889,67.75 L34.4444444,67.75 L34.4444444,71 L55.5555556,71 L55.5555556,67.75 L47.1111111,67.75 L47.1111111,61.159 C56.6111111,60.351375 64,54.152 64,46.625 L64,41.75 L59.7777778,41.75 Z" id="Shape" fill-rule="nonzero"></path>
        </g>
        <g id="volume-low" transform="translate(735.000000, 8.000000)" fill="#F06D35">
            <circle id="Oval" stroke="#F06D35" stroke-width="10" fill-opacity="0" cx="45" cy="45" r="45"></circle>
            <g id="Group" transform="translate(25.000000, 21.000000)" fill-rule="nonzero">
                <path d="M33.497,36.2691429 C32.7472857,36.2691429 31.9975714,36.0188571 31.4255238,35.5165714 C30.2814286,34.512 30.2814286,32.8851429 31.4255238,31.8805714 C36.3728571,27.5365714 36.3728571,20.4668571 31.4255238,16.1228571 C30.2814286,15.1182857 30.2814286,13.4897143 31.4255238,12.4868571 C32.569619,11.484 34.4224286,11.4822857 35.5665238,12.4868571 C42.7981429,18.8365714 42.7981429,29.1685714 35.5665238,35.5182857 C34.9944762,36.0205714 34.2447619,36.2708571 33.4950476,36.2708571 L33.497,36.2691429 Z" id="Shape"></path>
                <path d="M25.3809524,48 C24.8733333,48 24.3735238,47.8251429 24.000619,47.4977143 L8.95361905,34.2857143 L1.95238095,34.2857143 C0.874666667,34.2857143 0,33.5177143 0,32.5714286 L0,15.4285714 C0,14.4822857 0.874666667,13.7142857 1.95238095,13.7142857 L8.95361905,13.7142857 L24.000619,0.502285714 C24.559,0.012 25.3985238,-0.135428571 26.1287143,0.130285714 C26.8589048,0.396 27.3333333,1.02 27.3333333,1.71428571 L27.3333333,46.2857143 C27.3333333,46.9782857 26.8569524,47.604 26.1287143,47.8697143 C25.886619,47.9571429 25.6328095,48 25.3809524,48 Z" id="Shape"></path>
            </g>
        </g>
        <g id="arrow-up-right2" transform="translate(185.000000, 8.000000)" fill="#F06D35">
            <circle id="Oval" stroke="#F06D35" stroke-width="10" fill-opacity="0" cx="45" cy="45" r="45"></circle>
            <path d="M27.1125,68.7791667 L61.6666667,34.225 L61.6666667,49.1666667 C61.6666667,51.46875 63.53125,53.3333333 65.8333333,53.3333333 C68.1354167,53.3333333 70,51.46875 70,49.1666667 L70,24.1666667 C70,22.48125 68.9854167,20.9625 67.4270833,20.3166667 C66.9104167,20.1020833 66.36875,20.0020833 65.8333333,20.0020833 L65.8333333,20 L40.8333333,20 C38.53125,20 36.6666667,21.8645833 36.6666667,24.1666667 C36.6666667,26.46875 38.53125,28.3333333 40.8333333,28.3333333 L55.775,28.3333333 L21.2208333,62.8875 C20.40625,63.7 20,64.7666667 20,65.8333333 C20,66.9 20.40625,67.9666667 21.2208333,68.7791667 C22.8479167,70.40625 25.4854167,70.40625 27.1125,68.7791667 Z" id="Shape" fill-rule="nonzero"></path>
        </g>
        <path id="Line" d="M365.688948,63.0370762 L358.121561,69.6691685 L366.45419,73.0702415 L365.688948,63.0370762 Z M325.962924,161.688948 L362.965571,71.032462 L363.15452,70.5695381 L362.228672,70.1916411 L362.039724,70.654565 L325.037076,161.311052 L324.848128,161.773975 L325.773975,162.151872 L325.962924,161.688948 Z" fill="#F06D35" fill-rule="nonzero"></path>
        <path id="Line" d="M278.57225,63.7410987 L283.941639,72.2510731 L288.601863,64.5515724 L278.57225,63.7410987 Z M469.258901,178.57225 L346.860905,104.489252 L286.085775,67.7043051 L285.658025,67.4454038 L285.140222,68.3009039 L285.567972,68.5598052 L346.343102,105.344752 L468.741099,179.42775 L469.168849,179.686651 L469.686651,178.831151 L469.258901,178.57225 Z" fill="#F06D35" fill-rule="nonzero"></path>
        <g id="arrow-up-right2" transform="translate(555.000000, 8.000000)" fill="#F06D35">
            <circle id="Oval" stroke="#F06D35" stroke-width="10" fill-opacity="0" cx="45" cy="45" r="45"></circle>
            <path d="M27.1125,68.7791667 L61.6666667,34.225 L61.6666667,49.1666667 C61.6666667,51.46875 63.53125,53.3333333 65.8333333,53.3333333 C68.1354167,53.3333333 70,51.46875 70,49.1666667 L70,24.1666667 C70,22.48125 68.9854167,20.9625 67.4270833,20.3166667 C66.9104167,20.1020833 66.36875,20.0020833 65.8333333,20.0020833 L65.8333333,20 L40.8333333,20 C38.53125,20 36.6666667,21.8645833 36.6666667,24.1666667 C36.6666667,26.46875 38.53125,28.3333333 40.8333333,28.3333333 L55.775,28.3333333 L21.2208333,62.8875 C20.40625,63.7 20,64.7666667 20,65.8333333 C20,66.9 20.40625,67.9666667 21.2208333,68.7791667 C22.8479167,70.40625 25.4854167,70.40625 27.1125,68.7791667 Z" id="Shape" fill-rule="nonzero"></path>
        </g>
        <g id="arrow-up-right2" transform="translate(464.000000, 166.000000)" fill="#F06D35">
            <circle id="Oval" stroke="#F06D35" stroke-width="10" fill-opacity="0" cx="45" cy="45" r="45"></circle>
            <path d="M27.1125,68.7796748 L61.6666667,34.2251482 L61.6666667,49.1669705 C61.6666667,51.4690778 63.53125,53.3336806 65.8333333,53.3336806 C68.1354167,53.3336806 70,51.4690778 70,49.1669705 L70,24.1667101 C70,22.4812758 68.9854167,20.96251 67.4270833,20.31667 C66.9104167,20.1020844 66.36875,20.0020834 65.8333333,20.0020834 L65.8333333,20 L40.8333333,20 C38.53125,20 36.6666667,21.8646028 36.6666667,24.1667101 C36.6666667,26.4688174 38.53125,28.3334201 40.8333333,28.3334201 L55.775,28.3334201 L21.2208333,62.8879467 C20.40625,63.7004552 20,64.767133 20,65.8338108 C20,66.9004885 20.40625,67.9671663 21.2208333,68.7796748 C22.8479167,70.4067751 25.4854167,70.4067751 27.1125,68.7796748 Z" id="Shape" fill-rule="nonzero"></path>
        </g>
        <path id="Line" d="M181,53.2083333 L172,48.7083333 L172,57.7083333 L181,53.2083333 Z M99.5,53.7083333 L172.5,53.7083333 L173,53.7083333 L173,52.7083333 L172.5,52.7083333 L99.5,52.7083333 L99,52.7083333 L99,53.7083333 L99.5,53.7083333 Z" fill="#F06D35" fill-rule="nonzero"></path>
        <path id="Line" d="M365,54.2083333 L356,49.7083333 L356,58.7083333 L365,54.2083333 Z M279.5,54.7083333 L356.5,54.7083333 L357,54.7083333 L357,53.7083333 L356.5,53.7083333 L279.5,53.7083333 L279,53.7083333 L279,54.7083333 L279.5,54.7083333 Z" fill="#F06D35" fill-rule="nonzero"></path>
        <path id="Line" d="M549,54.2083333 L540,49.7083333 L540,58.7083333 L549,54.2083333 Z M464.5,54.7083333 L540.5,54.7083333 L541,54.7083333 L541,53.7083333 L540.5,53.7083333 L464.5,53.7083333 L464,53.7083333 L464,54.7083333 L464.5,54.7083333 Z" fill="#F06D35" fill-rule="nonzero"></path>
        <path id="Line" d="M730,53.2083333 L721,48.7083333 L721,57.7083333 L730,53.2083333 Z M650.5,53.7083333 L721.5,53.7083333 L722,53.7083333 L722,52.7083333 L721.5,52.7083333 L650.5,52.7083333 L650,52.7083333 L650,53.7083333 L650.5,53.7083333 Z" fill="#F06D35" fill-rule="nonzero"></path>
        <path id="Line" d="M485.707747,166.954798 L486.061479,156.898711 L477.875117,160.638161 L485.707747,166.954798 Z M448.045202,85.7077472 L481.747573,159.488613 L481.95532,159.94341 L482.864916,159.527916 L482.657168,159.073118 L448.954798,85.2922528 L448.747051,84.8374549 L447.837455,85.2529493 L448.045202,85.7077472 Z" fill="#F06D35" fill-rule="nonzero"></path>
        <g id="arrow-up-right2" transform="translate(269.000000, 166.000000)" fill="#F06D35">
            <circle id="Oval" stroke="#F06D35" stroke-width="10" fill-opacity="0" cx="45" cy="45" r="45"></circle>
            <path d="M27.1125,68.7791667 L61.6666667,34.225 L61.6666667,49.1666667 C61.6666667,51.46875 63.53125,53.3333333 65.8333333,53.3333333 C68.1354167,53.3333333 70,51.46875 70,49.1666667 L70,24.1666667 C70,22.48125 68.9854167,20.9625 67.4270833,20.3166667 C66.9104167,20.1020833 66.36875,20.0020833 65.8333333,20.0020833 L65.8333333,20 L40.8333333,20 C38.53125,20 36.6666667,21.8645833 36.6666667,24.1666667 C36.6666667,26.46875 38.53125,28.3333333 40.8333333,28.3333333 L55.775,28.3333333 L21.2208333,62.8875 C20.40625,63.7 20,64.7666667 20,65.8333333 C20,66.9 20.40625,67.9666667 21.2208333,68.7791667 C22.8479167,70.40625 25.4854167,70.40625 27.1125,68.7791667 Z" id="Shape" fill-rule="nonzero"></path>
        </g>
        <g id="arrow-up-right2" transform="translate(88.000000, 166.000000)" stroke="#F06D35">
            <circle id="Oval" stroke-width="10" fill-opacity="0" fill="#F06D35" cx="45" cy="45" r="45"></circle>
            <path d="M16,46.0196142 C22.653106,32.6732047 27.6954072,26 31.1269037,26 C34.5584002,26 39.4148779,32.6732047 45.6963369,46.0196142 C52.0482038,58.6732047 56.8144435,65 59.9950559,65 C63.1756684,65 67.8439831,58.6732047 74,46.0196142" id="Path-4" stroke-width="8"></path>
        </g>
        <path id="Line" d="M264,211.201389 L255,206.701389 L255,215.701389 L264,211.201389 Z M180.5,211.701389 L255.5,211.701389 L256,211.701389 L256,210.701389 L255.5,210.701389 L180.5,210.701389 L180,210.701389 L180,211.701389 L180.5,211.701389 Z" fill="#F06D35" fill-rule="nonzero"></path>
    </g>
</svg>